<?xml version="1.0" encoding="utf-8"?>
<!-- Generator: Adobe Illustrator 25.4.0, SVG Export Plug-In . SVG Version: 6.00 Build 0)  -->
<svg version="1.1" id="Layer_1" xmlns="http://www.w3.org/2000/svg" xmlns:xlink="http://www.w3.org/1999/xlink" x="0px" y="0px"
	 viewBox="0 0 455 455" style="enable-background:new 0 0 455 455;" xml:space="preserve">
<style type="text/css">
	.st0{fill-rule:evenodd;clip-rule:evenodd;fill:#FFFFFF;}
</style>
<g id="Layer_2_00000145020611088106210050000003019815864468166284_">
	<g id="Layer_1-2">
		<path class="st0" d="M455,332.5v-280c0-29-23.5-52.5-52.5-52.5h-350C23.5,0,0,23.5,0,52.5v350c0,29,23.5,52.5,52.5,52.5h350
			c29,0,52.5-23.5,52.5-52.5c0-9.7-7.8-17.5-17.5-17.5s-17.5,7.8-17.5,17.5c0,9.7-7.8,17.5-17.5,17.5h-350
			c-9.7,0-17.5-7.8-17.5-17.5v-350C35,42.8,42.8,35,52.5,35h350c9.7,0,17.5,7.8,17.5,17.5v280c0,9.7,7.8,17.5,17.5,17.5
			S455,342.2,455,332.5z"/>
		<path class="st0" d="M210,17.5v420c0,9.7,7.8,17.5,17.5,17.5s17.5-7.8,17.5-17.5v-420C245,7.8,237.2,0,227.5,0S210,7.8,210,17.5z"
			/>
		<path class="st0" d="M17.5,245h420c9.7,0,17.5-7.8,17.5-17.5s-7.8-17.5-17.5-17.5h-420C7.8,210,0,217.8,0,227.5S7.8,245,17.5,245z
			"/>
		<path class="st0" d="M105,87.5v70c0,9.7,7.8,17.5,17.5,17.5s17.5-7.8,17.5-17.5v-70c0-9.7-7.8-17.5-17.5-17.5S105,77.8,105,87.5z"
			/>
		<path class="st0" d="M157.5,105h-70c-9.7,0-17.5,7.8-17.5,17.5S77.8,140,87.5,140h70c9.7,0,17.5-7.8,17.5-17.5
			S167.2,105,157.5,105z"/>
		<path class="st0" d="M134.9,293.9l-49.5,49.5c-6.8,6.8-6.8,17.9,0,24.8s17.9,6.8,24.8,0l49.5-49.5c6.8-6.8,6.8-17.9,0-24.8
			S141.7,287,134.9,293.9z"/>
		<path class="st0" d="M159.6,343.4l-49.5-49.5c-6.8-6.8-17.9-6.8-24.8,0s-6.8,17.9,0,24.8l49.5,49.5c6.8,6.8,17.9,6.8,24.8,0
			S166.5,350.2,159.6,343.4z"/>
		<path class="st0" d="M367.5,105h-70c-9.7,0-17.5,7.8-17.5,17.5s7.8,17.5,17.5,17.5h70c9.7,0,17.5-7.8,17.5-17.5
			S377.2,105,367.5,105z"/>
		<path class="st0" d="M320.1,369.6l49.5-49.5c6.8-6.8,6.8-17.9,0-24.8s-17.9-6.8-24.8,0l-49.5,49.5c-6.8,6.8-6.8,17.9,0,24.8
			S313.3,376.5,320.1,369.6z"/>
	</g>
</g>
</svg>
