<?xml version="1.0" encoding="utf-8"?>
<!-- Generator: Adobe Illustrator 25.4.0, SVG Export Plug-In . SVG Version: 6.00 Build 0)  -->
<svg version="1.1" id="Layer_1" xmlns="http://www.w3.org/2000/svg" xmlns:xlink="http://www.w3.org/1999/xlink" x="0px" y="0px"
	 viewBox="0 0 347 380.6" style="enable-background:new 0 0 347 380.6;" xml:space="preserve">
<style type="text/css">
	.st0{fill:#FFFFFF;}
</style>
<g id="Layer_2_00000149350457594493058720000000987292309787645867_">
	<g id="Layer_1-2">
		<path class="st0" d="M6.3,357.5l5.6,5.6l0,0c23.4,23.4,61.3,23.4,84.7,0c7.7-7.7,13.2-17.4,15.8-28l18.3-71.9h31.5
			c12.4,0,22.4-10,22.4-22.4c0-12.4-10-22.4-22.4-22.4h-20.3l12.5-50.4c2-8.1,10.2-13,18.2-11c2.7,0.7,5.1,2,7.1,4l5.6,5.6l0,0
			c8.6,8.9,22.7,9.2,31.7,0.7c8.9-8.6,9.2-22.7,0.7-31.7c-0.2-0.2-0.5-0.5-0.7-0.7l-5.6-5.6l0,0c-23.4-23.4-61.3-23.4-84.7,0
			c-7.7,7.7-13.2,17.4-15.8,28l-15.2,61.1H61.4c-12.4,0-22.4,10-22.4,22.4c0,12.4,10,22.4,22.4,22.4c0,0,0,0,0,0h23.1l-15.3,61.6
			c-2,8.1-10.2,13-18.3,11c-2.7-0.7-5.1-2-7.1-4l-5.6-5.6c-8.8-8.8-22.9-8.8-31.7,0s-8.8,22.9,0,31.7L6.3,357.5z"/>
		<path class="st0" d="M268.6,0H95C51.7,0,16.6,35.1,16.6,78.4c0,0,0,0,0,0v56c0,12.4,10,22.4,22.4,22.4s22.4-10,22.4-22.4v-56
			c0-18.6,15-33.6,33.6-33.6h0h173.6c18.6,0,33.6,15,33.6,33.6c0,0,0,0,0,0V252c0,18.6-15,33.6-33.6,33.6c0,0,0,0,0,0h-39.2
			c-12.4,0-22.4,10-22.4,22.4c0,12.4,10,22.4,22.4,22.4c0,0,0,0,0,0h39.2c43.3,0,78.4-35.1,78.4-78.4c0,0,0,0,0,0V78.4
			C347,35.1,311.9,0,268.6,0C268.6,0,268.6,0,268.6,0z"/>
	</g>
</g>
</svg>
